# xmcd CD database file
#
# Track frame offsets:
#	150
#	16805
#	35457
#	51415
#	72242
#	88245
#	109982
#	129697
#	153640
#	171737
#	191467
#	211737
#	236875
#
# Disc length: 3427 seconds
#
# Revision: 2
# Processed by: cddbd v1.5.2PL0 Copyright (c) Steve Scherf et al.
# Submitted via: CDex 1.70beta2
#
DISCID=c00d610d
DTITLE=高橋真梨子 - Collection
DYEAR=1994
DGENRE=Blues
TTITLE0=ジョニーへの伝言
TTITLE1=五番街のマリーへ
TTITLE2=桃色吐息
TTITLE3=for you…
TTITLE4=陽かげりの街
TTITLE5=貴方が生きた Love Song
TTITLE6=はがゆい唇
TTITLE7=テンダネス
TTITLE8=あなたの空を翔びたい
TTITLE9=ジュン
TTITLE10=ハート and ハード ～時には強く時には優しく
TTITLE11=グランパ
TTITLE12=THANKS
EXTD=YEAR: 1994
EXTT0=
EXTT1=
EXTT2=
EXTT3=
EXTT4=
EXTT5=
EXTT6=
EXTT7=
EXTT8=
EXTT9=
EXTT10=
EXTT11=
EXTT12=
PLAYORDER=
